<svg height="263" viewBox="0 0 1364 263" width="1364" xmlns="http://www.w3.org/2000/svg"><g fill="#000000" fill-rule="evenodd" transform="translate(0 -2)"><path d="m76.9099573 200.563761c0 7.861538-2.0521368 13.329914-8.8876069 13.329914-7.1764957 0-9.5696581-4.786325-9.5696581-13.329914v-135.7012824c0-8.8876068 2.0491453-12.6478632 9.2286325-12.6478632 7.1764957 0 9.2286325 4.4452991 9.2286325 12.6478632v39.3076924h55.7158117v-41.7038462c0-33.4952992-15.038034-59.47307694-60.1581194-59.47307694h-10.2547009c-45.8051282 0-62.21324785 28.71196584-62.21324785 65.28846154v129.2068376c0 38.966667 15.04102565 67.334615 62.55427355 67.334615h9.9136752c44.4350424 0 60.1581194-30.420085 60.1581194-62.554273v-52.634615h-55.7158117zm140.7209397 60.158119h54.692735l-35.550427-254.30940137h-69.389743l-32.472223 254.30940137h48.880342l3.760257-37.258547h25.977777zm-17.090171-164.7542732 7.861539 77.2482902h-15.723077zm134.124787-45.8051282h8.205555c7.520513 0 9.228633 3.0752137 9.228633 11.965812v34.1773504c0 8.890598-3.078205 12.309829-10.254701 12.309829h-7.179487zm0 106.3072654h7.861538c7.520513 0 9.57265 3.760256 9.57265 12.303846v73.835042c0 9.228633 2.049145 15.038035 4.442308 18.113248h55.715812v-1.708119c-1.70812-3.419231-3.41624-8.890599-3.41624-18.460257v-84.08376c0-19.1453-12.647863-29.397009-22.217521-33.157265 9.910684-4.4453 22.217521-15.041026 22.217521-38.6256414v-33.501282c0-30.0760684-17.090171-44.77307697-42.044872-44.77307697h-88.529059v254.30940137h56.397863zm281.008119 104.252136h81.008547c33.157265 0 50.591453-18.801282 50.591453-58.452991v-139.8025642c0-40.6717949-19.483333-56.05384617-50.932478-56.05384617h-80.667522zm55.715812-207.1401706h8.54359c7.520513 0 9.913675 4.4452991 9.913675 14.7v128.1807696c0 10.595726-2.393162 15.382051-10.595726 15.382051h-7.861539zm141.917522-3.4192308h8.202564c7.520513 0 9.228632 3.0752137 9.228632 11.965812v34.1773504c0 8.890598-3.075213 12.309829-10.2547 12.309829h-7.176496zm0 106.3072654h7.861538c7.520513 0 9.569658 3.760256 9.569658 12.303846v73.835042c0 9.228633 2.052137 15.038035 4.4453 18.113248h55.715812v-1.708119c-1.70812-3.419231-3.419231-8.890599-3.419231-18.460257v-84.08376c0-19.1453-12.647864-29.397009-22.217522-33.157265 9.913676-4.4453 22.217522-15.041026 22.217522-38.6256414v-33.501282c0-30.0760684-17.08718-44.77307697-42.041881-44.77307697h-88.532051v254.30940137h56.400855zm86.785043 104.255128h56.400854v-254.31239337h-56.400854zm99.226495-.002992h73.832056l34.18632-254.30940137h-54.34872l-15.38504 159.28589737-15.38205-159.28589737h-59.473079zm114.267526-254.30940137v254.30940137h107.67435v-53.663675h-51.95854v-50.588461h39.99572v-54.007693h-39.99572v-43.4119655h49.90641v-52.63760687zm171.86794 43.74999997h8.19958c7.52051 0 9.22863 3.0752137 9.22863 11.965812v34.1773504c0 8.890598-3.07521 12.309829-10.2547 12.309829h-7.17351zm0 106.3072654h7.85855c7.52051 0 9.56966 3.760256 9.56966 12.303846v73.835042c0 9.228633 2.05214 15.038035 4.4453 18.113248h55.71581v-1.708119c-1.70812-3.419231-3.41923-8.890599-3.41923-18.460257v-84.08376c0-19.1453-12.64487-29.397009-22.21752-33.157265 9.91367-4.4453 22.21752-15.041026 22.21752-38.6256414v-33.501282c0-30.0760684-17.08718-44.77307697-42.04188-44.77307697h-88.53205v254.30940137h56.40384z" fill="#000"/><path d="m461.597949 185.664829h19.441453l-13.021795-104.6829059h-25.421368l-11.897008 104.6829059h17.906837l1.37906-15.340171h10.111111zm-6.856411-70.789744 3.476069 35.957265h-6.353846zm32.232906-33.8931619v104.6829059h17.906838v-54.594017l12.27094 54.594017h18.15812v-104.6829059h-17.658547v50.6512819l-10.64359-50.6512819zm57.382052 104.6829059h29.678205c12.145299 0 18.532051-7.74188 18.532051-24.063248v-57.540598c0-16.7431625-7.137607-23.0790599-18.657692-23.0790599h-29.552564zm19.818376-85.262393h3.724359c2.755128 0 3.631624 1.824786 3.631624 6.048718v52.760256c0 4.361539-.876496 6.329915-3.882906 6.329915h-3.473077z" fill="#000"/><path d="m428.498718 66.0159829h166.27094v-59.40726495h-166.27094z" fill="#d2232a"/><path d="m428.498718 260.038632h166.27094v-59.401282h-166.27094z" fill="#0061af"/></g></svg>